<?xml version="1.0" encoding="UTF-8" standalone="no" ?>
<!DOCTYPE svg PUBLIC "-//W3C//DTD SVG 1.1//EN" "http://www.w3.org/Graphics/SVG/1.1/DTD/svg11.dtd">
<svg xmlns="http://www.w3.org/2000/svg" xmlns:xlink="http://www.w3.org/1999/xlink" version="1.1" width="500" height="400" viewBox="0 0 500 400" xml:space="preserve">
<desc>Created with Fabric.js 5.3.0</desc>
<defs>
</defs>
<g transform="matrix(1 0 0 1 250.0000000209 200.0000000436)" id="5hMGIauz-gY9HyspMPjS0"  >
<g style=""   >
		<g transform="matrix(0.0363725949 0 0 -0.0363725949 -109.7179326588 -39.1077185774)" id="4vVNW-gfMGK_sezhWYA6c"  >
<path style="stroke: none; stroke-width: 1; stroke-dasharray: none; stroke-linecap: butt; stroke-dashoffset: 0; stroke-linejoin: miter; stroke-miterlimit: 4; fill: rgb(0,0,0); fill-rule: nonzero; opacity: 1;"  transform=" translate(-3733.5, -7075)" d="M 6495 11013 C 6473 11012 6397 11005 6325 11000 C 6040 10977 5684 10915 5375 10835 C 4546 10621 3793 10237 3167 9706 C 2882 9465 2579 9123 2328 8760 C 2056 8365 1759 7750 1635 7324 C 1547 7022 1500 6614 1500 6150 C 1500 5117 1731 4095 2084 3566 C 2169 3438 2165 3447 2143 3460 C 2129 3468 1971 3441 1451 3343 L 777 3215 L 764 3179 L 752 3142 L 1631 3135 C 2115 3131 2513 3130 2516 3132 C 2518 3135 2491 3189 2456 3253 C 2040 3996 1852 4629 1810 5426 C 1793 5759 1824 6233 1884 6571 C 1964 7013 2102 7446 2295 7860 C 2440 8170 2484 8238 2699 8475 C 2864 8657 3064 8898 3200 9080 C 3360 9294 3745 9694 3975 9886 C 4694 10485 5410 10794 6520 10985 L 6715 11019 L 6625 11018 C 6576 11017 6517 11015 6495 11013 z" stroke-linecap="round" />
</g>
		<g transform="matrix(0.0363725949 0 0 -0.0363725949 3.1599472997 -37.6187896245)" id="bprdMCvHHLRwAXamwHW2j"  >
<path style="stroke: none; stroke-width: 1; stroke-dasharray: none; stroke-linecap: butt; stroke-dashoffset: 0; stroke-linejoin: miter; stroke-miterlimit: 4; fill: rgb(0,0,0); fill-rule: nonzero; opacity: 1;"  transform=" translate(-6836.8771483696, -7034.064538686)" d="M 6440 10489 C 5052 10384 3774 9678 2953 8563 C 2457 7891 2161 7134 2053 6270 C 2028 6065 2028 5509 2053 5300 C 2125 4710 2289 4152 2531 3667 L 2580 3570 L 2735 3570 C 2820 3570 2890 3573 2890 3576 C 2890 3579 2865 3638 2834 3708 C 2540 4369 2402 5081 2440 5730 C 2466 6182 2526 6505 2654 6895 C 3148 8391 4383 9493 5915 9805 C 6248 9873 6372 9884 6775 9885 C 7152 9885 7216 9880 7495 9834 C 8870 9605 10067 8709 10685 7445 C 10901 7004 11039 6539 11111 6007 C 11137 5812 11148 5309 11131 5080 C 11094 4590 10990 4122 10824 3692 C 10800 3629 10780 3576 10780 3574 C 10780 3572 10822 3570 10873 3570 L 10967 3570 L 11027 3723 C 11107 3925 11187 4171 11250 4410 C 11278 4517 11311 4640 11322 4683 C 11333 4725 11346 4760 11351 4760 C 11363 4760 11363 4767 11340 4610 C 11329 4536 11320 4471 11321 4465 C 11323 4443 11392 4702 11415 4815 C 11478 5127 11474 5760 11405 6405 C 11396 6482 11387 6559 11385 6575 C 11381 6599 11382 6601 11389 6585 C 11394 6574 11399 6568 11399 6571 C 11400 6581 11332 6849 11313 6905 C 11264 7058 11137 7350 10935 7770 C 10797 8057 10778 8100 10784 8100 C 10786 8100 10819 8052 10858 7993 C 11198 7467 11444 6831 11550 6205 C 11598 5920 11605 5821 11604 5460 C 11604 5188 11600 5083 11581 4902 C 11556 4654 11557 4588 11583 4780 C 11638 5185 11651 5490 11630 5840 C 11571 6804 11253 7678 10684 8447 C 10491 8707 10164 9056 9925 9255 C 9701 9443 9242 9766 8982 9922 C 8451 10238 7790 10439 7110 10490 C 6956 10501 6596 10501 6440 10489 z" stroke-linecap="round" />
</g>
		<g transform="matrix(0.0363725949 0 0 -0.0363725949 161.6059775805 -23.2786338233)" id="yG7k_QY30yD44ztk6HN3E"  >
<path style="stroke: none; stroke-width: 1; stroke-dasharray: none; stroke-linecap: butt; stroke-dashoffset: 0; stroke-linejoin: miter; stroke-miterlimit: 4; fill: rgb(0,0,0); fill-rule: nonzero; opacity: 1;"  transform=" translate(-11193.0697859733, -6639.8073836624)" d="M 9646 10139 C 9821 9947 9969 9752 9949 9739 C 9916 9719 10108 9465 10820 8585 C 10987 8380 11166 8073 11320 7732 C 11422 7504 11558 7051 11624 6715 C 11686 6400 11710 6169 11717 5824 C 11725 5426 11700 5122 11629 4766 C 11585 4540 11497 4219 11454 4125 C 11447 4109 11421 4039 11397 3970 C 11312 3729 11138 3360 11023 3177 C 11009 3155 11001 3136 11004 3133 C 11007 3130 11400 3131 11878 3135 L 12748 3143 L 12736 3179 L 12723 3215 L 12109 3331 C 11771 3394 11490 3449 11483 3451 C 11476 3454 11486 3489 11515 3555 C 11586 3721 11674 3965 11729 4145 C 12073 5275 12073 6431 11730 7435 C 11541 7987 11272 8461 10934 8841 C 10882 8899 10559 9226 9810 9980 C 9687 10104 9613 10175 9646 10139 z" stroke-linecap="round" />
</g>
		<g transform="matrix(0.0363725949 0 0 -0.0363725949 82.0416634087 -18.0235760652)" id="bZL54NNMz-i3-5M6oLHfn"  >
<path style="stroke: none; stroke-width: 1; stroke-dasharray: none; stroke-linecap: butt; stroke-dashoffset: 0; stroke-linejoin: miter; stroke-miterlimit: 4; fill: rgb(0,0,0); fill-rule: nonzero; opacity: 1;"  transform=" translate(-9005.5900555126, -6495.328889155)" d="M 8280 7693 C 8140 7669 8025 7648 8024 7647 C 8023 7646 8014 7562 8005 7460 C 7991 7313 7989 7212 7993 6965 C 7998 6636 8013 6477 8055 6264 C 8135 5866 8329 5519 8544 5391 C 8617 5348 8769 5296 8885 5275 C 9010 5253 9283 5244 9357 5259 L 9415 5272 L 9460 5428 L 9505 5585 L 9508 5442 L 9511 5300 L 9548 5305 C 9599 5312 9980 5350 10002 5350 C 10019 5350 10020 5405 10020 6520 L 10020 7690 L 9984 7690 C 9940 7690 9623 7708 9556 7715 L 9507 7719 L 9512 6805 L 9517 5890 L 9486 5885 C 9381 5867 9299 5860 9175 5860 C 8918 5860 8822 5902 8713 6060 C 8627 6186 8550 6390 8524 6564 C 8502 6704 8511 7204 8539 7490 C 8563 7733 8564 7740 8548 7739 C 8541 7738 8420 7718 8280 7693 z" stroke-linecap="round" />
</g>
		<g transform="matrix(0.0363725949 0 0 -0.0363725949 1.2684942211 -18.6481339246)" id="nfcV0KU1XQruvSvHfKHKJ"  >
<path style="stroke: none; stroke-width: 1; stroke-dasharray: none; stroke-linecap: butt; stroke-dashoffset: 0; stroke-linejoin: miter; stroke-miterlimit: 4; fill: rgb(0,0,0); fill-rule: nonzero; opacity: 1;"  transform=" translate(-6784.875, -6512.5)" d="M 6020 7664 C 5880 7634 5764 7611 5763 7610 C 5761 7610 5760 7150 5760 6587 C 5760 5681 5762 5558 5776 5510 C 5803 5419 5840 5371 5915 5332 L 5965 5305 L 6775 5305 C 7385 5305 7595 5308 7625 5317 C 7712 5344 7779 5406 7800 5481 C 7813 5527 7813 7159 7800 7310 C 7782 7507 7741 7624 7667 7684 L 7628 7715 L 7027 7717 L 6425 7720 L 6366 7617 C 6280 7470 6286 7471 6280 7602 L 6275 7716 L 6020 7664 z M 7288 6508 L 7290 5820 L 6785 5820 L 6280 5820 L 6280 6510 L 6280 7200 L 6783 7198 L 7285 7195 L 7288 6508 z" stroke-linecap="round" />
</g>
		<g transform="matrix(0.0363725949 0 0 -0.0363725949 -80.7471607904 -8.8202587723)" id="IGywauBDs2fkgPoQJeVDN"  >
<path style="stroke: none; stroke-width: 1; stroke-dasharray: none; stroke-linecap: butt; stroke-dashoffset: 0; stroke-linejoin: miter; stroke-miterlimit: 4; fill: rgb(0,0,0); fill-rule: nonzero; opacity: 1;"  transform=" translate(-4530, -6242.3)" d="M 3756 7669 C 3620 7648 3506 7630 3505 7628 C 3494 7617 3480 7342 3480 7136 C 3480 6804 3499 6623 3560 6394 C 3620 6167 3700 6017 3829 5890 C 3958 5762 4087 5704 4330 5663 C 4434 5646 4672 5640 4762 5653 L 4819 5661 L 4921 5836 C 4976 5932 5025 6010 5027 6010 C 5046 6010 4994 5697 4964 5625 C 4945 5578 4862 5490 4800 5450 C 4710 5392 4657 5381 4157 5315 C 3895 5281 3677 5250 3674 5247 C 3668 5241 3836 4791 3849 4777 C 3853 4773 3912 4774 3981 4780 C 4453 4818 5019 4942 5199 5046 C 5224 5061 5290 5119 5346 5174 C 5468 5296 5509 5370 5539 5525 C 5576 5709 5580 5840 5580 6788 L 5580 7710 L 5331 7710 C 5102 7710 5081 7709 5076 7693 C 5073 7683 5048 7578 5020 7460 C 4992 7342 4967 7237 4964 7228 C 4959 7211 4971 7210 5126 7210 C 5258 7210 5290 7207 5282 7198 C 5276 7191 5223 7161 5163 7131 L 5054 7078 L 5057 6821 C 5059 6680 5057 6486 5053 6390 L 5045 6215 L 4935 6203 C 4641 6172 4368 6177 4269 6216 C 4209 6241 4127 6338 4069 6455 C 3980 6636 3954 6793 3963 7110 C 3966 7223 3978 7398 3990 7499 C 4001 7600 4010 7688 4008 7694 C 4006 7703 3938 7696 3756 7669 z" stroke-linecap="round" />
</g>
		<g transform="matrix(0.0363725949 0 0 -0.0363725949 169.3074319757 -19.8615876438)" id="IFfXz-S7oJ_3a2WFkmiwm"  >
<path style="stroke: none; stroke-width: 1; stroke-dasharray: none; stroke-linecap: butt; stroke-dashoffset: 0; stroke-linejoin: miter; stroke-miterlimit: 4; fill: rgb(0,0,0); fill-rule: nonzero; opacity: 1;"  transform=" translate(-11404.8076179391, -6545.8617582482)" d="M 11401 6544 C 11401 6533 11404 6530 11407 6538 C 11410 6545 11409 6554 11406 6557 C 11403 6561 11400 6555 11401 6544 z" stroke-linecap="round" />
</g>
		<g transform="matrix(0.0363725949 0 0 -0.0363725949 169.6711579251 -18.4066838463)" id="E3c-LV191UznruI4FyAuS"  >
<path style="stroke: none; stroke-width: 1; stroke-dasharray: none; stroke-linecap: butt; stroke-dashoffset: 0; stroke-linejoin: miter; stroke-miterlimit: 4; fill: rgb(0,0,0); fill-rule: nonzero; opacity: 1;"  transform=" translate(-11414.8076179391, -6505.8617582482)" d="M 11411 6504 C 11411 6493 11414 6490 11417 6498 C 11420 6505 11419 6514 11416 6517 C 11413 6521 11410 6515 11411 6504 z" stroke-linecap="round" />
</g>
		<g transform="matrix(0.0363725949 0 0 -0.0363725949 170.050974458 -16.7450356197)" id="yXeSFLekRTYtZzzeEnQN6"  >
<path style="stroke: none; stroke-width: 1; stroke-dasharray: none; stroke-linecap: butt; stroke-dashoffset: 0; stroke-linejoin: miter; stroke-miterlimit: 4; fill: rgb(0,0,0); fill-rule: nonzero; opacity: 1;"  transform=" translate(-11425.25, -6460.1776867802)" d="M 11422 6460 C 11422 6446 11424 6441 11427 6448 C 11429 6454 11429 6466 11427 6473 C 11424 6479 11422 6474 11422 6460 z" stroke-linecap="round" />
</g>
		<g transform="matrix(0.0363725949 0 0 -0.0363725949 170.3986098239 -15.1331503019)" id="I2YUnigHYNVW2tP-EPlRn"  >
<path style="stroke: none; stroke-width: 1; stroke-dasharray: none; stroke-linecap: butt; stroke-dashoffset: 0; stroke-linejoin: miter; stroke-miterlimit: 4; fill: rgb(0,0,0); fill-rule: nonzero; opacity: 1;"  transform=" translate(-11434.8076179391, -6415.8617582482)" d="M 11431 6414 C 11431 6403 11434 6400 11437 6408 C 11440 6415 11439 6424 11436 6427 C 11433 6431 11430 6425 11431 6414 z" stroke-linecap="round" />
</g>
		<g transform="matrix(0.0363725949 0 0 -0.0363725949 170.7784263568 -13.4715020752)" id="_4mti0FFgEkf4iSnG3Mx1"  >
<path style="stroke: none; stroke-width: 1; stroke-dasharray: none; stroke-linecap: butt; stroke-dashoffset: 0; stroke-linejoin: miter; stroke-miterlimit: 4; fill: rgb(0,0,0); fill-rule: nonzero; opacity: 1;"  transform=" translate(-11445.25, -6370.1776867802)" d="M 11442 6370 C 11442 6356 11444 6351 11447 6358 C 11449 6364 11449 6376 11447 6383 C 11444 6389 11442 6384 11442 6370 z" stroke-linecap="round" />
</g>
		<g transform="matrix(0.0363725949 0 0 -0.0363725949 172.6770357251 14.8540591001)" id="wB06brGn1VYoQ7Nr88q8R"  >
<path style="stroke: none; stroke-width: 1; stroke-dasharray: none; stroke-linecap: butt; stroke-dashoffset: 0; stroke-linejoin: miter; stroke-miterlimit: 4; fill: rgb(0,0,0); fill-rule: nonzero; opacity: 1;"  transform=" translate(-11497.4488978661, -5591.4166106629)" d="M 11450 6334 C 11450 6329 11459 6276 11469 6215 C 11525 5900 11544 5628 11537 5295 C 11534 5158 11526 5003 11520 4952 C 11505 4828 11513 4802 11530 4915 C 11549 5037 11550 5695 11532 5865 C 11518 5992 11463 6331 11455 6339 C 11452 6341 11450 6339 11450 6334 z" stroke-linecap="round" />
</g>
		<g transform="matrix(0.0363725949 0 0 -0.0363725949 172.9607820531 43.6334719779)" id="htG5v3GYinCfsQP6rlioM"  >
<path style="stroke: none; stroke-width: 1; stroke-dasharray: none; stroke-linecap: butt; stroke-dashoffset: 0; stroke-linejoin: miter; stroke-miterlimit: 4; fill: rgb(0,0,0); fill-rule: nonzero; opacity: 1;"  transform=" translate(-11505.25, -4800.1776867802)" d="M 11502 4800 C 11502 4786 11504 4781 11507 4788 C 11509 4794 11509 4806 11507 4813 C 11504 4819 11502 4814 11502 4800 z" stroke-linecap="round" />
</g>
		<g transform="matrix(0.0363725949 0 0 -0.0363725949 174.7794118 49.9464616809)" id="x1zubvEFm2q42dPSF2COC"  >
<path style="stroke: none; stroke-width: 1; stroke-dasharray: none; stroke-linecap: butt; stroke-dashoffset: 0; stroke-linejoin: miter; stroke-miterlimit: 4; fill: rgb(0,0,0); fill-rule: nonzero; opacity: 1;"  transform=" translate(-11555.25, -4626.6132294271)" d="M 11552 4625 C 11552 4609 11554 4603 11557 4613 C 11559 4622 11559 4636 11557 4643 C 11554 4649 11552 4642 11552 4625 z" stroke-linecap="round" />
</g>
		<g transform="matrix(0.0363725949 0 0 -0.0363725949 -66.1617502202 73.6473257314)" id="nxVK9Y-v093zQiCIBNrVm"  >
<path style="stroke: none; stroke-width: 1; stroke-dasharray: none; stroke-linecap: butt; stroke-dashoffset: 0; stroke-linejoin: miter; stroke-miterlimit: 4; fill: rgb(0,0,0); fill-rule: nonzero; opacity: 1;"  transform=" translate(-4931, -3975)" d="M 4922 4348 L 4700 4125 L 4700 4333 L 4700 4540 L 4580 4540 L 4460 4540 L 4460 3965 L 4460 3390 L 4580 3390 L 4700 3390 L 4700 3598 C 4700 3803 4700 3807 4723 3828 C 4736 3840 4749 3850 4752 3850 C 4755 3850 4786 3799 4820 3738 C 4898 3598 4993 3458 5031 3425 C 5068 3394 5119 3380 5193 3380 C 5259 3380 5327 3409 5374 3458 L 5402 3489 L 5359 3598 L 5315 3708 L 5274 3684 C 5219 3652 5180 3653 5148 3688 C 5118 3719 5029 3856 4977 3950 L 4941 4015 L 5127 4208 L 5313 4402 L 5229 4486 L 5145 4570 L 4922 4348 z" stroke-linecap="round" />
</g>
		<g transform="matrix(0.0363725949 0 0 -0.0363725949 -25.6608657564 73.556394244)" id="VANZhhuWvVSMSltMqpwKJ"  >
<path style="stroke: none; stroke-width: 1; stroke-dasharray: none; stroke-linecap: butt; stroke-dashoffset: 0; stroke-linejoin: miter; stroke-miterlimit: 4; fill: rgb(0,0,0); fill-rule: nonzero; opacity: 1;"  transform=" translate(-6044.5, -3977.5)" d="M 5838 4493 L 5805 4435 L 5802 4488 C 5800 4520 5794 4540 5787 4540 C 5780 4540 5727 4530 5667 4519 L 5559 4497 L 5562 3984 L 5565 3470 L 5598 3438 L 5630 3405 L 6039 3405 C 6439 3405 6449 3405 6477 3426 C 6530 3465 6530 3465 6530 3890 C 6530 4107 6526 4322 6520 4367 C 6510 4461 6481 4526 6444 4540 C 6430 4546 6296 4550 6145 4550 L 5871 4550 L 5838 4493 z M 6280 3970 L 6280 3640 L 6040 3640 L 5800 3640 L 5800 3970 L 5800 4300 L 6040 4300 L 6280 4300 L 6280 3970 z" stroke-linecap="round" />
</g>
		<g transform="matrix(0.0363725949 0 0 -0.0363725949 14.3752596701 73.8291887061)" id="DsWEtgoxx4-puMKk2g-B7"  >
<path style="stroke: none; stroke-width: 1; stroke-dasharray: none; stroke-linecap: butt; stroke-dashoffset: 0; stroke-linejoin: miter; stroke-miterlimit: 4; fill: rgb(0,0,0); fill-rule: nonzero; opacity: 1;"  transform=" translate(-7145.2222744037, -3970)" d="M 6760 4548 C 6760 4546 6751 4499 6740 4442 C 6711 4292 6707 4301 6792 4298 L 6863 4295 L 6805 4250 L 6747 4205 L 7015 3944 C 7214 3750 7281 3679 7278 3664 C 7275 3647 7264 3645 7144 3642 C 7024 3640 7011 3641 6987 3660 C 6972 3672 6960 3687 6960 3693 C 6960 3700 6956 3711 6951 3719 C 6944 3730 6922 3726 6832 3696 L 6722 3659 L 6735 3617 C 6768 3509 6807 3448 6865 3414 C 6906 3391 6912 3390 7121 3390 C 7354 3390 7425 3400 7485 3441 C 7532 3473 7558 3529 7566 3617 C 7577 3738 7576 3740 7273 4035 L 7006 4295 L 7116 4302 C 7264 4311 7316 4298 7333 4247 C 7334 4242 7377 4246 7439 4259 C 7496 4270 7545 4280 7548 4280 C 7557 4280 7538 4375 7519 4425 C 7497 4484 7471 4512 7418 4535 C 7387 4547 7328 4550 7070 4550 C 6900 4550 6760 4549 6760 4548 z" stroke-linecap="round" />
</g>
		<g transform="matrix(0.0363725949 0 0 -0.0363725949 54.7234449306 73.6473156628)" id="4voWjhkA3d2Mn6YLidwV8"  >
<path style="stroke: none; stroke-width: 1; stroke-dasharray: none; stroke-linecap: butt; stroke-dashoffset: 0; stroke-linejoin: miter; stroke-miterlimit: 4; fill: rgb(0,0,0); fill-rule: nonzero; opacity: 1;"  transform=" translate(-8254.5240805822, -3975.0002768166)" d="M 8057 4500 C 8019 4432 8010 4430 8010 4489 C 8010 4523 8006 4540 7998 4540 C 7991 4540 7937 4530 7878 4518 L 7770 4495 L 7770 4002 C 7770 3458 7770 3458 7832 3420 C 7864 3401 7881 3400 8253 3400 C 8592 3400 8646 3402 8676 3416 C 8742 3448 8741 3440 8738 3958 C 8735 4388 8734 4428 8716 4468 C 8680 4551 8685 4550 8366 4550 L 8085 4550 L 8057 4500 z M 8490 3970 L 8490 3640 L 8253 3642 L 8015 3645 L 8012 3973 L 8010 4300 L 8250 4300 L 8490 4300 L 8490 3970 z" stroke-linecap="round" />
</g>
		<g transform="matrix(0.0363725949 0 0 -0.0363725949 170.7623357733 55.0659579291)" id="avbmJ-UQ28T4JWiG4XVVP"  >
<path style="stroke: none; stroke-width: 1; stroke-dasharray: none; stroke-linecap: butt; stroke-dashoffset: 0; stroke-linejoin: miter; stroke-miterlimit: 4; fill: rgb(0,0,0); fill-rule: nonzero; opacity: 1;"  transform=" translate(-11444.8076179391, -4485.8617582482)" d="M 11441 4484 C 11441 4473 11444 4470 11447 4478 C 11450 4485 11449 4494 11446 4497 C 11443 4501 11440 4495 11441 4484 z" stroke-linecap="round" />
</g>
		<g transform="matrix(0.0363725949 0 0 -0.0363725949 167.3434709709 68.1726741555)" id="Bp7gktYxUajV9URvBdpvb"  >
<path style="stroke: none; stroke-width: 1; stroke-dasharray: none; stroke-linecap: butt; stroke-dashoffset: 0; stroke-linejoin: miter; stroke-miterlimit: 4; fill: rgb(0,0,0); fill-rule: nonzero; opacity: 1;"  transform=" translate(-11350.8119927112, -4125.5158371333)" d="M 11350 4138 C 11262 3809 11252 3767 11271 3810 C 11306 3892 11450 4444 11438 4455 C 11437 4457 11397 4314 11350 4138 z" stroke-linecap="round" />
</g>
		<g transform="matrix(0.0363725949 0 0 -0.0363725949 163.1582393135 68.4095444801)" id="-QcTwVAlarEv0K407e8y8"  >
<path style="stroke: none; stroke-width: 1; stroke-dasharray: none; stroke-linecap: butt; stroke-dashoffset: 0; stroke-linejoin: miter; stroke-miterlimit: 4; fill: rgb(0,0,0); fill-rule: nonzero; opacity: 1;"  transform=" translate(-11235.7464697678, -4119.0035075893)" d="M 11232 4123 C 11225 4098 11221 4076 11223 4073 C 11225 4071 11233 4090 11240 4115 C 11247 4140 11251 4163 11248 4165 C 11246 4167 11238 4149 11232 4123 z" stroke-linecap="round" />
</g>
		<g transform="matrix(0.0363725949 0 0 -0.0363725949 -46.908165409 147.5497891988)" id="-yMDjpqIRzcARuMu0q63g"  >
<path style="stroke: none; stroke-width: 1; stroke-dasharray: none; stroke-linecap: butt; stroke-dashoffset: 0; stroke-linejoin: miter; stroke-miterlimit: 4; fill: rgb(0,0,0); fill-rule: nonzero; opacity: 1;"  transform=" translate(-5460.3431728974, -1943.1828147589)" d="M 5345 2900 C 5200 2880 5066 2829 4954 2752 C 4887 2707 4780 2598 4731 2527 C 4606 2344 4542 2059 4569 1810 C 4613 1402 4831 1117 5175 1015 C 5296 979 5503 970 5634 994 C 6045 1072 6295 1357 6351 1810 C 6364 1920 6358 2093 6336 2196 C 6261 2553 6032 2802 5710 2880 C 5613 2903 5434 2913 5345 2900 z M 5535 2569 C 5741 2531 5875 2347 5910 2055 C 5930 1889 5902 1694 5839 1563 C 5796 1473 5707 1380 5628 1344 C 5571 1318 5555 1315 5460 1315 C 5365 1315 5350 1318 5297 1343 C 5137 1422 5037 1594 5010 1838 C 4970 2200 5133 2521 5380 2569 C 5444 2581 5468 2581 5535 2569 z" stroke-linecap="round" />
</g>
		<g transform="matrix(0.0363725949 0 0 -0.0363725949 -118.5746595263 147.4836934562)" id="M6pF89O64tpfa9tpQkl0a"  >
<path style="stroke: none; stroke-width: 1; stroke-dasharray: none; stroke-linecap: butt; stroke-dashoffset: 0; stroke-linejoin: miter; stroke-miterlimit: 4; fill: rgb(0,0,0); fill-rule: nonzero; opacity: 1;"  transform=" translate(-3490, -1945)" d="M 2720 1945 L 2720 1010 L 2930 1010 L 3140 1010 L 3140 1400 L 3140 1790 L 3490 1790 L 3840 1790 L 3840 1400 L 3840 1010 L 4050 1010 L 4260 1010 L 4260 1945 L 4260 2880 L 4050 2880 L 3840 2880 L 3840 2515 L 3840 2150 L 3490 2150 L 3140 2150 L 3140 2515 L 3140 2880 L 2930 2880 L 2720 2880 L 2720 1945 z" stroke-linecap="round" />
</g>
		<g transform="matrix(0.0363725949 0 0 -0.0363725949 14.7309009227 147.4836934562)" id="xV0dOc0GPHP-aSmUSAV7d"  >
<path style="stroke: none; stroke-width: 1; stroke-dasharray: none; stroke-linecap: butt; stroke-dashoffset: 0; stroke-linejoin: miter; stroke-miterlimit: 4; fill: rgb(0,0,0); fill-rule: nonzero; opacity: 1;"  transform=" translate(-7155, -1945)" d="M 6440 2705 L 6440 2530 L 6690 2530 L 6940 2530 L 6940 1770 L 6940 1010 L 7150 1010 L 7360 1010 L 7360 1770 L 7360 2530 L 7615 2530 L 7870 2530 L 7870 2705 L 7870 2880 L 7155 2880 L 6440 2880 L 6440 2705 z" stroke-linecap="round" />
</g>
		<g transform="matrix(0.0363725949 0 0 -0.0363725949 71.4721490264 147.4836934562)" id="W0pDpvpfNd4G6do3vwHeK"  >
<path style="stroke: none; stroke-width: 1; stroke-dasharray: none; stroke-linecap: butt; stroke-dashoffset: 0; stroke-linejoin: miter; stroke-miterlimit: 4; fill: rgb(0,0,0); fill-rule: nonzero; opacity: 1;"  transform=" translate(-8715, -1945)" d="M 8120 1945 L 8120 1010 L 8715 1010 L 9310 1010 L 9310 1180 L 9310 1350 L 8925 1350 L 8540 1350 L 8540 1575 L 8540 1800 L 8885 1800 L 9230 1800 L 9230 1970 L 9230 2140 L 8885 2140 L 8540 2140 L 8540 2340 L 8540 2540 L 8905 2540 L 9270 2540 L 9270 2710 L 9270 2880 L 8695 2880 L 8120 2880 L 8120 1945 z" stroke-linecap="round" />
</g>
		<g transform="matrix(0.0363725949 0 0 -0.0363725949 125.4854525098 147.4836934562)" id="Q-Wz947Tg1ORLyezYCKF8"  >
<path style="stroke: none; stroke-width: 1; stroke-dasharray: none; stroke-linecap: butt; stroke-dashoffset: 0; stroke-linejoin: miter; stroke-miterlimit: 4; fill: rgb(0,0,0); fill-rule: nonzero; opacity: 1;"  transform=" translate(-10200, -1945)" d="M 9620 1945 L 9620 1010 L 10200 1010 L 10780 1010 L 10780 1185 L 10780 1360 L 10410 1360 L 10040 1360 L 10040 2120 L 10040 2880 L 9830 2880 L 9620 2880 L 9620 1945 z" stroke-linecap="round" />
</g>
</g>
</g>
</svg>